<svg xmlns="http://www.w3.org/2000/svg" viewBox="0 0 1200 26" width="1200" height="26" role="img">
<style>
  .d{ animation: sweep 2.6s linear infinite; }
  @keyframes sweep{ 0%{opacity:.1} 50%{opacity:.85} 100%{opacity:.1} }
</style>
<rect class="d" x="1" y="6" width="16" height="14" rx="2" fill="#3FAA9C" style="animation-delay:-0.0s"/>
<rect class="d" x="19" y="6" width="16" height="14" rx="2" fill="#41AC9D" style="animation-delay:-0.06s"/>
<rect class="d" x="37" y="6" width="16" height="14" rx="2" fill="#42AD9F" style="animation-delay:-0.12s"/>
<rect class="d" x="55" y="6" width="16" height="14" rx="2" fill="#44AFA0" style="animation-delay:-0.18s"/>
<rect class="d" x="73" y="6" width="16" height="14" rx="2" fill="#45B0A2" style="animation-delay:-0.24s"/>
<rect class="d" x="91" y="6" width="16" height="14" rx="2" fill="#47B2A3" style="animation-delay:-0.3s"/>
<rect class="d" x="109" y="6" width="16" height="14" rx="2" fill="#48B3A4" style="animation-delay:-0.36s"/>
<rect class="d" x="127" y="6" width="16" height="14" rx="2" fill="#49B4A6" style="animation-delay:-0.42s"/>
<rect class="d" x="145" y="6" width="16" height="14" rx="2" fill="#4BB6A7" style="animation-delay:-0.48s"/>
<rect class="d" x="163" y="6" width="16" height="14" rx="2" fill="#4CB7A8" style="animation-delay:-0.54s"/>
<rect class="d" x="181" y="6" width="16" height="14" rx="2" fill="#4EB8AA" style="animation-delay:-0.6s"/>
<rect class="d" x="199" y="6" width="16" height="14" rx="2" fill="#4FBAAB" style="animation-delay:-0.66s"/>
<rect class="d" x="217" y="6" width="16" height="14" rx="2" fill="#50BBAC" style="animation-delay:-0.72s"/>
<rect class="d" x="235" y="6" width="16" height="14" rx="2" fill="#52BCAD" style="animation-delay:-0.78s"/>
<rect class="d" x="253" y="6" width="16" height="14" rx="2" fill="#53BDAF" style="animation-delay:-0.84s"/>
<rect class="d" x="271" y="6" width="16" height="14" rx="2" fill="#54BEB0" style="animation-delay:-0.9s"/>
<rect class="d" x="289" y="6" width="16" height="14" rx="2" fill="#55C0B1" style="animation-delay:-0.96s"/>
<rect class="d" x="307" y="6" width="16" height="14" rx="2" fill="#56C1B2" style="animation-delay:-1.02s"/>
<rect class="d" x="325" y="6" width="16" height="14" rx="2" fill="#57C2B3" style="animation-delay:-1.08s"/>
<rect class="d" x="343" y="6" width="16" height="14" rx="2" fill="#58C2B4" style="animation-delay:-1.14s"/>
<rect class="d" x="361" y="6" width="16" height="14" rx="2" fill="#59C3B4" style="animation-delay:-1.2s"/>
<rect class="d" x="379" y="6" width="16" height="14" rx="2" fill="#5AC4B5" style="animation-delay:-1.26s"/>
<rect class="d" x="397" y="6" width="16" height="14" rx="2" fill="#5BC5B6" style="animation-delay:-1.32s"/>
<rect class="d" x="415" y="6" width="16" height="14" rx="2" fill="#5BC6B7" style="animation-delay:-1.38s"/>
<rect class="d" x="433" y="6" width="16" height="14" rx="2" fill="#5CC6B7" style="animation-delay:-1.44s"/>
<rect class="d" x="451" y="6" width="16" height="14" rx="2" fill="#5DC7B8" style="animation-delay:-1.5s"/>
<rect class="d" x="469" y="6" width="16" height="14" rx="2" fill="#5DC7B8" style="animation-delay:-1.56s"/>
<rect class="d" x="487" y="6" width="16" height="14" rx="2" fill="#5EC8B9" style="animation-delay:-1.62s"/>
<rect class="d" x="505" y="6" width="16" height="14" rx="2" fill="#5EC8B9" style="animation-delay:-1.68s"/>
<rect class="d" x="523" y="6" width="16" height="14" rx="2" fill="#5EC8B9" style="animation-delay:-1.74s"/>
<rect class="d" x="541" y="6" width="16" height="14" rx="2" fill="#5FC9BA" style="animation-delay:-1.8s"/>
<rect class="d" x="559" y="6" width="16" height="14" rx="2" fill="#5FC9BA" style="animation-delay:-1.86s"/>
<rect class="d" x="577" y="6" width="16" height="14" rx="2" fill="#5FC9BA" style="animation-delay:-1.92s"/>
<rect class="d" x="595" y="6" width="16" height="14" rx="2" fill="#5FC9BA" style="animation-delay:-1.98s"/>
<rect class="d" x="613" y="6" width="16" height="14" rx="2" fill="#5FC9BA" style="animation-delay:-2.04s"/>
<rect class="d" x="631" y="6" width="16" height="14" rx="2" fill="#5FC9BA" style="animation-delay:-2.1s"/>
<rect class="d" x="649" y="6" width="16" height="14" rx="2" fill="#5FC9BA" style="animation-delay:-2.16s"/>
<rect class="d" x="667" y="6" width="16" height="14" rx="2" fill="#5EC8B9" style="animation-delay:-2.22s"/>
<rect class="d" x="685" y="6" width="16" height="14" rx="2" fill="#5EC8B9" style="animation-delay:-2.28s"/>
<rect class="d" x="703" y="6" width="16" height="14" rx="2" fill="#5EC8B9" style="animation-delay:-2.34s"/>
<rect class="d" x="721" y="6" width="16" height="14" rx="2" fill="#5DC7B8" style="animation-delay:-2.4s"/>
<rect class="d" x="739" y="6" width="16" height="14" rx="2" fill="#5DC7B8" style="animation-delay:-2.46s"/>
<rect class="d" x="757" y="6" width="16" height="14" rx="2" fill="#5CC6B7" style="animation-delay:-2.52s"/>
<rect class="d" x="775" y="6" width="16" height="14" rx="2" fill="#5BC6B7" style="animation-delay:-2.58s"/>
<rect class="d" x="793" y="6" width="16" height="14" rx="2" fill="#5BC5B6" style="animation-delay:-0.04s"/>
<rect class="d" x="811" y="6" width="16" height="14" rx="2" fill="#5AC4B5" style="animation-delay:-0.1s"/>
<rect class="d" x="829" y="6" width="16" height="14" rx="2" fill="#59C3B4" style="animation-delay:-0.16s"/>
<rect class="d" x="847" y="6" width="16" height="14" rx="2" fill="#58C2B4" style="animation-delay:-0.22s"/>
<rect class="d" x="865" y="6" width="16" height="14" rx="2" fill="#57C2B3" style="animation-delay:-0.28s"/>
<rect class="d" x="883" y="6" width="16" height="14" rx="2" fill="#56C1B2" style="animation-delay:-0.34s"/>
<rect class="d" x="901" y="6" width="16" height="14" rx="2" fill="#55C0B1" style="animation-delay:-0.4s"/>
<rect class="d" x="919" y="6" width="16" height="14" rx="2" fill="#54BEB0" style="animation-delay:-0.46s"/>
<rect class="d" x="937" y="6" width="16" height="14" rx="2" fill="#53BDAF" style="animation-delay:-0.52s"/>
<rect class="d" x="955" y="6" width="16" height="14" rx="2" fill="#52BCAD" style="animation-delay:-0.58s"/>
<rect class="d" x="973" y="6" width="16" height="14" rx="2" fill="#50BBAC" style="animation-delay:-0.64s"/>
<rect class="d" x="991" y="6" width="16" height="14" rx="2" fill="#4FBAAB" style="animation-delay:-0.7s"/>
<rect class="d" x="1009" y="6" width="16" height="14" rx="2" fill="#4EB8AA" style="animation-delay:-0.76s"/>
<rect class="d" x="1027" y="6" width="16" height="14" rx="2" fill="#4CB7A8" style="animation-delay:-0.82s"/>
<rect class="d" x="1045" y="6" width="16" height="14" rx="2" fill="#4BB6A7" style="animation-delay:-0.88s"/>
<rect class="d" x="1063" y="6" width="16" height="14" rx="2" fill="#49B4A6" style="animation-delay:-0.94s"/>
<rect class="d" x="1081" y="6" width="16" height="14" rx="2" fill="#48B3A4" style="animation-delay:-1.0s"/>
<rect class="d" x="1099" y="6" width="16" height="14" rx="2" fill="#47B2A3" style="animation-delay:-1.06s"/>
<rect class="d" x="1117" y="6" width="16" height="14" rx="2" fill="#45B0A2" style="animation-delay:-1.12s"/>
<rect class="d" x="1135" y="6" width="16" height="14" rx="2" fill="#44AFA0" style="animation-delay:-1.18s"/>
<rect class="d" x="1153" y="6" width="16" height="14" rx="2" fill="#42AD9F" style="animation-delay:-1.24s"/>
<rect class="d" x="1171" y="6" width="16" height="14" rx="2" fill="#41AC9D" style="animation-delay:-1.3s"/>
</svg>