<svg xmlns="http://www.w3.org/2000/svg" viewBox="0 0 1200 26" width="1200" height="26" role="img">
<style>.d{animation:sw 2.8s ease-in-out infinite}@keyframes sw{0%{opacity:.12}50%{opacity:.9}100%{opacity:.12}}</style>
<rect class="d" x="1" y="6" width="16" height="14" rx="3" fill="#3FAE9F" style="animation-delay:-0.0s"/>
<rect class="d" x="19" y="6" width="16" height="14" rx="3" fill="#40AFA3" style="animation-delay:-0.05s"/>
<rect class="d" x="37" y="6" width="16" height="14" rx="3" fill="#41AFA6" style="animation-delay:-0.1s"/>
<rect class="d" x="55" y="6" width="16" height="14" rx="3" fill="#42B0AA" style="animation-delay:-0.15s"/>
<rect class="d" x="73" y="6" width="16" height="14" rx="3" fill="#43B0AD" style="animation-delay:-0.2s"/>
<rect class="d" x="91" y="6" width="16" height="14" rx="3" fill="#44B1B1" style="animation-delay:-0.25s"/>
<rect class="d" x="109" y="6" width="16" height="14" rx="3" fill="#45B2B4" style="animation-delay:-0.3s"/>
<rect class="d" x="127" y="6" width="16" height="14" rx="3" fill="#46B2B8" style="animation-delay:-0.35s"/>
<rect class="d" x="145" y="6" width="16" height="14" rx="3" fill="#47B3BC" style="animation-delay:-0.4s"/>
<rect class="d" x="163" y="6" width="16" height="14" rx="3" fill="#48B4BF" style="animation-delay:-0.45s"/>
<rect class="d" x="181" y="6" width="16" height="14" rx="3" fill="#49B4C3" style="animation-delay:-0.5s"/>
<rect class="d" x="199" y="6" width="16" height="14" rx="3" fill="#4AB5C6" style="animation-delay:-0.55s"/>
<rect class="d" x="217" y="6" width="16" height="14" rx="3" fill="#4BB5CA" style="animation-delay:-0.6s"/>
<rect class="d" x="235" y="6" width="16" height="14" rx="3" fill="#4CB6CD" style="animation-delay:-0.65s"/>
<rect class="d" x="253" y="6" width="16" height="14" rx="3" fill="#4DB7D1" style="animation-delay:-0.7s"/>
<rect class="d" x="271" y="6" width="16" height="14" rx="3" fill="#4EB7D5" style="animation-delay:-0.75s"/>
<rect class="d" x="289" y="6" width="16" height="14" rx="3" fill="#4FB8D8" style="animation-delay:-0.8s"/>
<rect class="d" x="307" y="6" width="16" height="14" rx="3" fill="#51B8D4" style="animation-delay:-0.85s"/>
<rect class="d" x="325" y="6" width="16" height="14" rx="3" fill="#54B7CD" style="animation-delay:-0.9s"/>
<rect class="d" x="343" y="6" width="16" height="14" rx="3" fill="#57B7C6" style="animation-delay:-0.95s"/>
<rect class="d" x="361" y="6" width="16" height="14" rx="3" fill="#5AB6BF" style="animation-delay:-1.0s"/>
<rect class="d" x="379" y="6" width="16" height="14" rx="3" fill="#5DB6B8" style="animation-delay:-1.05s"/>
<rect class="d" x="397" y="6" width="16" height="14" rx="3" fill="#60B5B1" style="animation-delay:-1.1s"/>
<rect class="d" x="415" y="6" width="16" height="14" rx="3" fill="#63B5AA" style="animation-delay:-1.15s"/>
<rect class="d" x="433" y="6" width="16" height="14" rx="3" fill="#66B4A4" style="animation-delay:-1.2s"/>
<rect class="d" x="451" y="6" width="16" height="14" rx="3" fill="#69B49D" style="animation-delay:-1.25s"/>
<rect class="d" x="469" y="6" width="16" height="14" rx="3" fill="#6CB396" style="animation-delay:-1.3s"/>
<rect class="d" x="487" y="6" width="16" height="14" rx="3" fill="#6FB38F" style="animation-delay:-1.35s"/>
<rect class="d" x="505" y="6" width="16" height="14" rx="3" fill="#72B288" style="animation-delay:-1.4s"/>
<rect class="d" x="523" y="6" width="16" height="14" rx="3" fill="#75B281" style="animation-delay:-1.45s"/>
<rect class="d" x="541" y="6" width="16" height="14" rx="3" fill="#78B17A" style="animation-delay:-1.5s"/>
<rect class="d" x="559" y="6" width="16" height="14" rx="3" fill="#7BB173" style="animation-delay:-1.55s"/>
<rect class="d" x="577" y="6" width="16" height="14" rx="3" fill="#7EB06C" style="animation-delay:-1.6s"/>
<rect class="d" x="595" y="6" width="16" height="14" rx="3" fill="#82B068" style="animation-delay:-1.65s"/>
<rect class="d" x="613" y="6" width="16" height="14" rx="3" fill="#88AF67" style="animation-delay:-1.7s"/>
<rect class="d" x="631" y="6" width="16" height="14" rx="3" fill="#8EAE66" style="animation-delay:-1.75s"/>
<rect class="d" x="649" y="6" width="16" height="14" rx="3" fill="#94AD65" style="animation-delay:-1.8s"/>
<rect class="d" x="667" y="6" width="16" height="14" rx="3" fill="#9AAD64" style="animation-delay:-1.85s"/>
<rect class="d" x="685" y="6" width="16" height="14" rx="3" fill="#A0AC63" style="animation-delay:-1.9s"/>
<rect class="d" x="703" y="6" width="16" height="14" rx="3" fill="#A6AB62" style="animation-delay:-1.95s"/>
<rect class="d" x="721" y="6" width="16" height="14" rx="3" fill="#ACAA61" style="animation-delay:-2.0s"/>
<rect class="d" x="739" y="6" width="16" height="14" rx="3" fill="#B2AA60" style="animation-delay:-2.05s"/>
<rect class="d" x="757" y="6" width="16" height="14" rx="3" fill="#B8A95F" style="animation-delay:-2.1s"/>
<rect class="d" x="775" y="6" width="16" height="14" rx="3" fill="#BEA85E" style="animation-delay:-2.15s"/>
<rect class="d" x="793" y="6" width="16" height="14" rx="3" fill="#C4A85D" style="animation-delay:-2.2s"/>
<rect class="d" x="811" y="6" width="16" height="14" rx="3" fill="#CAA75C" style="animation-delay:-2.25s"/>
<rect class="d" x="829" y="6" width="16" height="14" rx="3" fill="#D0A65B" style="animation-delay:-2.3s"/>
<rect class="d" x="847" y="6" width="16" height="14" rx="3" fill="#D6A55A" style="animation-delay:-2.35s"/>
<rect class="d" x="865" y="6" width="16" height="14" rx="3" fill="#DCA559" style="animation-delay:-2.4s"/>
<rect class="d" x="883" y="6" width="16" height="14" rx="3" fill="#E0A358" style="animation-delay:-2.45s"/>
<rect class="d" x="901" y="6" width="16" height="14" rx="3" fill="#E0A058" style="animation-delay:-2.5s"/>
<rect class="d" x="919" y="6" width="16" height="14" rx="3" fill="#E09D58" style="animation-delay:-2.55s"/>
<rect class="d" x="937" y="6" width="16" height="14" rx="3" fill="#E09A59" style="animation-delay:-2.6s"/>
<rect class="d" x="955" y="6" width="16" height="14" rx="3" fill="#E09659" style="animation-delay:-2.65s"/>
<rect class="d" x="973" y="6" width="16" height="14" rx="3" fill="#E09359" style="animation-delay:-2.7s"/>
<rect class="d" x="991" y="6" width="16" height="14" rx="3" fill="#E09059" style="animation-delay:-2.75s"/>
<rect class="d" x="1009" y="6" width="16" height="14" rx="3" fill="#E08D59" style="animation-delay:-0.0s"/>
<rect class="d" x="1027" y="6" width="16" height="14" rx="3" fill="#E08A5A" style="animation-delay:-0.05s"/>
<rect class="d" x="1045" y="6" width="16" height="14" rx="3" fill="#E0865A" style="animation-delay:-0.1s"/>
<rect class="d" x="1063" y="6" width="16" height="14" rx="3" fill="#E0835A" style="animation-delay:-0.15s"/>
<rect class="d" x="1081" y="6" width="16" height="14" rx="3" fill="#E0805A" style="animation-delay:-0.2s"/>
<rect class="d" x="1099" y="6" width="16" height="14" rx="3" fill="#E07D5A" style="animation-delay:-0.25s"/>
<rect class="d" x="1117" y="6" width="16" height="14" rx="3" fill="#E07A5A" style="animation-delay:-0.3s"/>
<rect class="d" x="1135" y="6" width="16" height="14" rx="3" fill="#E0765B" style="animation-delay:-0.35s"/>
<rect class="d" x="1153" y="6" width="16" height="14" rx="3" fill="#E0735B" style="animation-delay:-0.4s"/>
<rect class="d" x="1171" y="6" width="16" height="14" rx="3" fill="#E0705B" style="animation-delay:-0.45s"/>
</svg>